<?xml version="1.0" encoding="utf-8"?>
<!-- Generator: Adobe Illustrator 15.0.0, SVG Export Plug-In . SVG Version: 6.00 Build 0)  -->
<!DOCTYPE svg PUBLIC "-//W3C//DTD SVG 1.1//EN" "http://www.w3.org/Graphics/SVG/1.1/DTD/svg11.dtd">
<svg version="1.1" id="Layer_1" xmlns="http://www.w3.org/2000/svg" xmlns:xlink="http://www.w3.org/1999/xlink" x="0px" y="0px"
	 width="800px" height="280px" viewBox="0 0 800 280" enable-background="new 0 0 800 280" xml:space="preserve">
<path fill="#A6A9AA" d="M454.542,69.576c-22.511-1.538-41.452,12.278-52.194,12.278c-10.74,0-27.115-11.768-44.51-11.768
	c-23.539,0.51-44.518,13.301-56.286,34.279c-24.052,41.449-6.142,103.355,16.884,137.125c11.769,16.375,25.072,34.795,42.982,34.279
	c17.395-0.51,24.046-11.253,44.51-11.253c20.98,0,26.607,11.253,45.032,10.743c18.41,0,30.188-16.879,41.447-33.254
	c13.298-19.445,18.42-37.865,18.93-38.891c-0.51,0-36.336-13.804-36.336-54.745c-0.51-34.282,28.148-51.167,29.163-51.68
	C488.312,72.644,463.245,70.086,454.542,69.576"/>
<path fill="#A6A9AA" d="M440.723,47.059c9.213-11.253,15.859-27.12,13.819-42.979c-13.304,0.513-30.188,8.697-39.916,20.465
	c-8.697,10.235-16.37,26.095-14.321,41.957C415.656,67.525,430.995,58.828,440.723,47.059"/>
</svg>
